<svg width="42" height="43" viewBox="0 0 42 43" fill="none" xmlns="http://www.w3.org/2000/svg">
<path d="M36.669 12.5974C36.3686 12.0769 35.9384 11.6431 35.4204 11.3384C34.9024 11.0337 34.3143 10.8685 33.7134 10.8588H11.4597L10.4513 6.92965C10.3495 6.55036 10.1222 6.21674 9.80647 5.98312C9.49077 5.74951 9.10528 5.62966 8.71278 5.64311H5.23564C4.77454 5.64311 4.33233 5.82628 4.00629 6.15232C3.68024 6.47837 3.49707 6.92058 3.49707 7.38167C3.49707 7.84277 3.68024 8.28498 4.00629 8.61102C4.33233 8.93707 4.77454 9.12024 5.23564 9.12024H7.39146L12.1899 26.9579C12.2918 27.3372 12.5191 27.6708 12.8348 27.9044C13.1505 28.138 13.536 28.2579 13.9285 28.2444H29.5756C29.8967 28.2435 30.2112 28.1536 30.4843 27.9848C30.7574 27.816 30.9784 27.5749 31.1229 27.2882L36.8254 15.8832C37.0726 15.3652 37.1877 14.794 37.1604 14.2206C37.1331 13.6473 36.9642 13.0896 36.669 12.5974ZM28.4977 24.7673H15.2498L12.4159 14.3359H33.7134L28.4977 24.7673Z" fill="#006C4F"/>
<path d="M13.058 36.9369C14.4983 36.9369 15.6659 35.7693 15.6659 34.329C15.6659 32.8888 14.4983 31.7212 13.058 31.7212C11.6178 31.7212 10.4502 32.8888 10.4502 34.329C10.4502 35.7693 11.6178 36.9369 13.058 36.9369Z" fill="#006C4F"/>
<path d="M30.4448 36.9369C31.885 36.9369 33.0526 35.7693 33.0526 34.329C33.0526 32.8888 31.885 31.7212 30.4448 31.7212C29.0045 31.7212 27.8369 32.8888 27.8369 34.329C27.8369 35.7693 29.0045 36.9369 30.4448 36.9369Z" fill="#006C4F"/>
</svg>
