<svg width="420" height="286" viewBox="0 0 420 286" fill="none" xmlns="http://www.w3.org/2000/svg">
<path d="M54.0377 285.597H0.5L63.7525 52.4178C75.0273 20.84 103.959 0.403198 137.5 0.403198C171.041 0.403198 199.973 20.84 211.248 52.4178L211.886 54.4757L274.5 285.597H220.962L158.702 70.1582C153.455 56.8884 141.187 55.824 137.5 55.824C133.813 55.824 121.474 56.8884 116.298 70.1582L54.0377 285.597Z" fill="#F7A822"/>
<path d="M312.056 281.703H286L316.784 168.297C322.271 152.939 336.351 143 352.675 143C368.999 143 383.079 152.939 388.566 168.297L388.877 169.298L419.35 281.703H393.294L362.994 176.925C360.44 170.471 354.469 169.954 352.675 169.954C350.88 169.954 344.875 170.471 342.356 176.925L312.056 281.703Z" fill="#0F9556"/>
</svg>
