<svg width="25" height="25" viewBox="0 0 25 25" fill="none" xmlns="http://www.w3.org/2000/svg">
<path d="M10.0279 3.04297H4.77789C3.94947 3.04297 3.27789 3.71454 3.27789 4.54297V9.79297C3.27789 10.6214 3.94947 11.293 4.77789 11.293H10.0279C10.8563 11.293 11.5279 10.6214 11.5279 9.79297V4.54297C11.5279 3.71454 10.8563 3.04297 10.0279 3.04297Z" fill="#007355"/>
<path d="M20.5279 3.04297H15.2779C14.4495 3.04297 13.7779 3.71454 13.7779 4.54297V9.79297C13.7779 10.6214 14.4495 11.293 15.2779 11.293H20.5279C21.3563 11.293 22.0279 10.6214 22.0279 9.79297V4.54297C22.0279 3.71454 21.3563 3.04297 20.5279 3.04297Z" fill="#007355"/>
<path d="M10.0279 13.543H4.77789C3.94947 13.543 3.27789 14.2145 3.27789 15.043V20.293C3.27789 21.1214 3.94947 21.793 4.77789 21.793H10.0279C10.8563 21.793 11.5279 21.1214 11.5279 20.293V15.043C11.5279 14.2145 10.8563 13.543 10.0279 13.543Z" fill="#007355"/>
<path d="M17.9029 21.793C20.1811 21.793 22.0279 19.9461 22.0279 17.668C22.0279 15.3898 20.1811 13.543 17.9029 13.543C15.6247 13.543 13.7779 15.3898 13.7779 17.668C13.7779 19.9461 15.6247 21.793 17.9029 21.793Z" fill="#F7A726"/>
</svg>
