<svg width="201" height="60" viewBox="0 0 201 60" fill="none" xmlns="http://www.w3.org/2000/svg">
<rect x="1.03828" y="0.7375" width="198.525" height="58.525" rx="9.5875" fill="white"/>
<path d="M132.543 28.3215V31.7008H130.425V33.9169H132.543V41.4467C132.543 44.0179 133.706 45.0464 136.632 45.0464C137.146 45.0464 137.636 44.9851 138.065 44.9117V42.7201C137.697 42.7568 137.465 42.7813 137.061 42.7813C135.751 42.7813 135.175 42.1691 135.175 40.7733V33.9169H138.065V31.7008H135.175V28.3215H132.543Z" fill="black" fill-opacity="0.87"/>
<path d="M145.519 45.23C149.413 45.23 151.8 42.6221 151.8 38.3001C151.8 34.0026 149.4 31.3824 145.519 31.3824C141.626 31.3824 139.226 34.0026 139.226 38.3001C139.226 42.6221 141.613 45.23 145.519 45.23ZM145.519 42.8915C143.23 42.8915 141.944 41.2141 141.944 38.3001C141.944 35.4106 143.23 33.721 145.519 33.721C147.796 33.721 149.094 35.4106 149.094 38.3001C149.094 41.2018 147.796 42.8915 145.519 42.8915Z" fill="black" fill-opacity="0.87"/>
<path d="M153.843 44.9729H156.475V37.1002C156.475 35.2269 157.883 33.9658 159.879 33.9658C160.344 33.9658 161.128 34.0516 161.348 34.125V31.5294C161.067 31.4559 160.565 31.4192 160.173 31.4192C158.434 31.4192 156.953 32.3742 156.573 33.6842H156.377V31.6396H153.843V44.9729Z" fill="black" fill-opacity="0.87"/>
<path d="M167.884 33.623C169.831 33.623 171.104 34.9821 171.166 37.0757H164.432C164.579 34.9943 165.938 33.623 167.884 33.623ZM171.153 41.3733C170.664 42.414 169.574 42.9894 167.982 42.9894C165.876 42.9894 164.517 41.5079 164.432 39.1694V39.0225H173.847V38.1042C173.847 33.9169 171.606 31.3824 167.897 31.3824C164.138 31.3824 161.75 34.0883 161.75 38.3491C161.75 42.6099 164.089 45.23 167.909 45.23C170.958 45.23 173.088 43.7608 173.688 41.3733H171.153Z" fill="black" fill-opacity="0.87"/>
<path d="M115.28 40.0491C115.483 43.3232 118.211 45.417 122.272 45.417C126.612 45.417 129.328 43.2216 129.328 39.7192C129.328 36.9654 127.78 35.4426 124.024 34.5669L122.006 34.072C119.62 33.5137 118.656 32.7649 118.656 31.4578C118.656 29.8081 120.153 28.7295 122.399 28.7295C124.531 28.7295 126.003 29.7827 126.27 31.4705H129.036C128.871 28.3868 126.156 26.2168 122.437 26.2168C118.44 26.2168 115.775 28.3868 115.775 31.6482C115.775 34.3385 117.285 35.9375 120.597 36.7116L122.958 37.2826C125.381 37.8537 126.447 38.6912 126.447 40.0872C126.447 41.7115 124.772 42.8917 122.488 42.8917C120.039 42.8917 118.338 41.7877 118.097 40.0491H115.28Z" fill="black" fill-opacity="0.87"/>
<path d="M88.0112 31.4192C86.1992 31.4192 84.632 32.3252 83.8239 33.8434H83.628V31.6396H81.0936V49.4051H83.726V42.9527H83.9341C84.632 44.3607 86.138 45.1933 88.0357 45.1933C91.4027 45.1933 93.5454 42.5364 93.5454 38.3001C93.5454 34.0638 91.4027 31.4192 88.0112 31.4192ZM87.2644 42.8303C85.0605 42.8303 83.677 41.0917 83.677 38.3123C83.677 35.5208 85.0605 33.7822 87.2766 33.7822C89.505 33.7822 90.8395 35.4841 90.8395 38.3001C90.8395 41.1284 89.505 42.8303 87.2644 42.8303Z" fill="black" fill-opacity="0.87"/>
<path d="M102.757 31.4192C100.944 31.4192 99.3773 32.3252 98.5692 33.8434H98.3733V31.6396H95.8388V49.4051H98.4712V42.9527H98.6794C99.3773 44.3607 100.883 45.1933 102.781 45.1933C106.148 45.1933 108.291 42.5364 108.291 38.3001C108.291 34.0638 106.148 31.4192 102.757 31.4192ZM102.01 42.8303C99.8058 42.8303 98.4223 41.0917 98.4223 38.3123C98.4223 35.5208 99.8058 33.7822 102.022 33.7822C104.25 33.7822 105.585 35.4841 105.585 38.3001C105.585 41.1284 104.25 42.8303 102.01 42.8303Z" fill="black" fill-opacity="0.87"/>
<path d="M76.3706 44.9729H79.3909L72.7793 26.661H69.721L63.1094 44.9729H66.0281L67.7159 40.1126H74.6955L76.3706 44.9729ZM71.1042 29.9858H71.3199L73.9722 37.7268H68.4393L71.1042 29.9858Z" fill="black" fill-opacity="0.87"/>
<path d="M64.8789 12.8487V21.6825H68.0684C70.7008 21.6825 72.2251 20.0602 72.2251 17.2381C72.2251 14.4588 70.6885 12.8487 68.0684 12.8487H64.8789ZM66.2502 14.0976H67.9153C69.7458 14.0976 70.8293 15.2607 70.8293 17.2564C70.8293 19.2828 69.7641 20.4337 67.9153 20.4337H66.2502V14.0976Z" fill="black" fill-opacity="0.87"/>
<path d="M76.8936 21.8111C78.8403 21.8111 80.0341 20.5071 80.0341 18.3461C80.0341 16.1974 78.8342 14.8873 76.8936 14.8873C74.9469 14.8873 73.747 16.1974 73.747 18.3461C73.747 20.5071 74.9407 21.8111 76.8936 21.8111ZM76.8936 20.6418C75.7488 20.6418 75.106 19.8031 75.106 18.3461C75.106 16.9014 75.7488 16.0565 76.8936 16.0565C78.0323 16.0565 78.6812 16.9014 78.6812 18.3461C78.6812 19.797 78.0323 20.6418 76.8936 20.6418Z" fill="black" fill-opacity="0.87"/>
<path d="M90.2 15.0158H88.8838L87.6962 20.1031H87.5921L86.2208 15.0158H84.9597L83.5884 20.1031H83.4905L82.2967 15.0158H80.9622L82.7987 21.6825H84.1516L85.5229 16.7728H85.627L87.0044 21.6825H88.3696L90.2 15.0158Z" fill="black" fill-opacity="0.87"/>
<path d="M91.7158 21.6825H93.032V17.7829C93.032 16.7422 93.6503 16.0933 94.6236 16.0933C95.597 16.0933 96.0623 16.6259 96.0623 17.6972V21.6825H97.3785V17.3666C97.3785 15.7811 96.5581 14.8873 95.0705 14.8873C94.0665 14.8873 93.4054 15.3342 93.0809 16.0749H92.983V15.0158H91.7158V21.6825Z" fill="black" fill-opacity="0.87"/>
<path d="M99.4513 21.6825H100.767V12.4141H99.4513V21.6825Z" fill="black" fill-opacity="0.87"/>
<path d="M105.718 21.8111C107.664 21.8111 108.858 20.5071 108.858 18.3461C108.858 16.1974 107.658 14.8873 105.718 14.8873C103.771 14.8873 102.571 16.1974 102.571 18.3461C102.571 20.5071 103.765 21.8111 105.718 21.8111ZM105.718 20.6418C104.573 20.6418 103.93 19.8031 103.93 18.3461C103.93 16.9014 104.573 16.0565 105.718 16.0565C106.856 16.0565 107.505 16.9014 107.505 18.3461C107.505 19.797 106.856 20.6418 105.718 20.6418Z" fill="black" fill-opacity="0.87"/>
<path d="M112.78 20.6846C112.063 20.6846 111.543 20.3357 111.543 19.7358C111.543 19.1481 111.959 18.8359 112.878 18.7746L114.506 18.6706V19.2277C114.506 20.0541 113.771 20.6846 112.78 20.6846ZM112.443 21.7927C113.318 21.7927 114.047 21.4131 114.445 20.7459H114.549V21.6825H115.816V17.1279C115.816 15.7198 114.873 14.8873 113.202 14.8873C111.69 14.8873 110.613 15.6219 110.478 16.7667H111.751C111.898 16.2953 112.406 16.0259 113.141 16.0259C114.041 16.0259 114.506 16.4239 114.506 17.1279V17.7033L112.7 17.8074C111.115 17.9053 110.221 18.5971 110.221 19.797C110.221 21.0152 111.157 21.7927 112.443 21.7927Z" fill="black" fill-opacity="0.87"/>
<path d="M120.283 21.7927C121.201 21.7927 121.978 21.3581 122.376 20.6296H122.48V21.6825H123.741V12.4141H122.425V16.0749H122.327C121.966 15.3403 121.195 14.9056 120.283 14.9056C118.599 14.9056 117.516 16.2402 117.516 18.3461C117.516 20.4581 118.587 21.7927 120.283 21.7927ZM120.656 16.0872C121.758 16.0872 122.45 16.9626 122.45 18.3522C122.45 19.748 121.764 20.6112 120.656 20.6112C119.542 20.6112 118.875 19.7603 118.875 18.3461C118.875 16.9442 119.548 16.0872 120.656 16.0872Z" fill="black" fill-opacity="0.87"/>
<path d="M132.277 21.8111C134.223 21.8111 135.417 20.5071 135.417 18.3461C135.417 16.1974 134.217 14.8873 132.277 14.8873C130.33 14.8873 129.13 16.1974 129.13 18.3461C129.13 20.5071 130.324 21.8111 132.277 21.8111ZM132.277 20.6418C131.132 20.6418 130.489 19.8031 130.489 18.3461C130.489 16.9014 131.132 16.0565 132.277 16.0565C133.415 16.0565 134.064 16.9014 134.064 18.3461C134.064 19.797 133.415 20.6418 132.277 20.6418Z" fill="black" fill-opacity="0.87"/>
<path d="M137.159 21.6825H138.476V17.7829C138.476 16.7422 139.094 16.0933 140.067 16.0933C141.041 16.0933 141.506 16.6259 141.506 17.6972V21.6825H142.822V17.3666C142.822 15.7811 142.002 14.8873 140.514 14.8873C139.51 14.8873 138.849 15.3342 138.524 16.0749H138.427V15.0158H137.159V21.6825Z" fill="black" fill-opacity="0.87"/>
<path d="M148.884 13.3568V15.0464H147.825V16.1545H148.884V19.9194C148.884 21.205 149.465 21.7192 150.929 21.7192C151.186 21.7192 151.431 21.6886 151.645 21.6519V20.5561C151.461 20.5745 151.345 20.5867 151.143 20.5867C150.488 20.5867 150.2 20.2806 150.2 19.5827V16.1545H151.645V15.0464H150.2V13.3568H148.884Z" fill="black" fill-opacity="0.87"/>
<path d="M153.412 21.6825H154.728V17.789C154.728 16.7789 155.328 16.0994 156.405 16.0994C157.336 16.0994 157.831 16.6381 157.831 17.7033V21.6825H159.148V17.3789C159.148 15.7933 158.272 14.8934 156.852 14.8934C155.848 14.8934 155.144 15.3403 154.82 16.0872H154.715V12.4141H153.412V21.6825Z" fill="black" fill-opacity="0.87"/>
<path d="M163.896 16.0076C164.869 16.0076 165.506 16.6871 165.536 17.7339H162.169C162.243 16.6932 162.922 16.0076 163.896 16.0076ZM165.53 19.8827C165.285 20.403 164.741 20.6908 163.945 20.6908C162.892 20.6908 162.212 19.95 162.169 18.7808V18.7073H166.877V18.2482C166.877 16.1545 165.757 14.8873 163.902 14.8873C162.022 14.8873 160.829 16.2402 160.829 18.3706C160.829 20.501 161.998 21.8111 163.908 21.8111C165.432 21.8111 166.498 21.0764 166.798 19.8827H165.53Z" fill="black" fill-opacity="0.87"/>
<path d="M48.826 29.9438C48.858 27.4643 50.1896 25.1182 52.302 23.8195C50.9693 21.9163 48.7373 20.7096 46.415 20.637C43.9381 20.377 41.5369 22.1191 40.2747 22.1191C38.9881 22.1191 37.0448 20.6628 34.9522 20.7058C32.2245 20.7939 29.6817 22.3447 28.3546 24.7294C25.502 29.6684 27.6298 36.9269 30.3624 40.9191C31.7296 42.874 33.3274 45.0577 35.4182 44.9803C37.4641 44.8954 38.2282 43.6757 40.6978 43.6757C43.1444 43.6757 43.8613 44.9803 45.9945 44.931C48.1899 44.8954 49.573 42.9675 50.8922 40.9941C51.8746 39.6011 52.6305 38.0616 53.1319 36.4326C50.552 35.3414 48.8291 32.745 48.826 29.9438Z" fill="black" fill-opacity="0.87"/>
<path d="M44.7968 18.0115C45.9938 16.5745 46.5835 14.7275 46.4407 12.8628C44.612 13.0549 42.9227 13.9289 41.7096 15.3107C40.5232 16.6608 39.9059 18.4753 40.0226 20.2688C41.852 20.2876 43.6505 19.4373 44.7968 18.0115Z" fill="black" fill-opacity="0.87"/>
<rect x="1.03828" y="0.7375" width="198.525" height="58.525" rx="9.5875" stroke="#A6A6A6" stroke-width="1.475"/>
</svg>
