<svg width="201" height="60" viewBox="0 0 201 60" fill="none" xmlns="http://www.w3.org/2000/svg">
<rect x="1.33294" y="0.733333" width="198.533" height="58.5333" rx="6.6" fill="white"/>
<path d="M101.171 32.3294C97.6861 32.3294 94.8461 35.0129 94.8461 38.7089C94.8461 42.3824 97.6861 45.0884 101.171 45.0884C104.656 45.0884 107.496 42.3824 107.496 38.7089C107.495 35.0129 104.655 32.3294 101.171 32.3294ZM101.171 42.5774C99.2609 42.5774 97.615 40.9829 97.615 38.7104C97.615 36.4139 99.2624 34.8434 101.171 34.8434C103.08 34.8434 104.726 36.4139 104.726 38.7104C104.726 40.9814 103.08 42.5774 101.171 42.5774ZM87.372 32.3294C83.8875 32.3294 81.0475 35.0129 81.0475 38.7089C81.0475 42.3824 83.8875 45.0884 87.372 45.0884C90.8579 45.0884 93.6979 42.3824 93.6979 38.7089C93.6979 35.0129 90.8579 32.3294 87.372 32.3294ZM87.372 42.5774C85.4624 42.5774 83.8164 40.9829 83.8164 38.7104C83.8164 36.4139 85.4638 34.8434 87.372 34.8434C89.2816 34.8434 90.9275 36.4139 90.9275 38.7104C90.929 40.9814 89.2816 42.5774 87.372 42.5774ZM70.9601 34.2884V36.9944H77.3572C77.1661 38.5169 76.6653 39.6284 75.9009 40.4009C74.9705 41.3429 73.5142 42.3824 70.9601 42.3824C67.0224 42.3824 63.9438 39.1679 63.9438 35.1809C63.9438 31.1939 67.0224 27.9794 70.9601 27.9794C73.0846 27.9794 74.6357 28.8254 75.7809 29.9129L77.6668 28.0034C76.0668 26.4569 73.9438 25.2734 70.9601 25.2734C65.5661 25.2734 61.0312 29.7194 61.0312 35.1809C61.0312 40.6424 65.5661 45.0884 70.9601 45.0884C73.8712 45.0884 76.0683 44.1209 77.7853 42.3089C79.5513 40.5209 80.1009 38.0069 80.1009 35.9774C80.1009 35.3504 80.0535 34.7699 79.9572 34.2869H70.9601V34.2884ZM138.083 36.3899C137.559 34.9649 135.959 32.3294 132.689 32.3294C129.443 32.3294 126.745 34.9154 126.745 38.7089C126.745 42.2849 129.419 45.0884 132.999 45.0884C135.886 45.0884 137.557 43.3004 138.251 42.2609L136.102 40.8104C135.387 41.8739 134.408 42.5744 132.999 42.5744C131.591 42.5744 130.588 41.9219 129.944 40.6409L138.369 37.1129L138.083 36.3899ZM129.491 38.5169C129.419 36.0509 131.376 34.7954 132.785 34.7954C133.883 34.7954 134.813 35.3519 135.125 36.1484L129.491 38.5169ZM122.642 44.7029H125.409V25.9514H122.642V44.7029ZM118.105 33.7559H118.011C117.39 33.0059 116.196 32.3294 114.693 32.3294C111.542 32.3294 108.655 35.1329 108.655 38.7344C108.655 42.3104 111.542 45.0899 114.693 45.0899C116.197 45.0899 117.39 44.4134 118.011 43.6409H118.105V44.5589C118.105 46.9994 116.816 48.3044 114.741 48.3044C113.046 48.3044 111.996 47.0729 111.566 46.0334L109.156 47.0489C109.848 48.7394 111.685 50.8184 114.741 50.8184C117.987 50.8184 120.732 48.8849 120.732 44.1719V32.7179H118.107V33.7559H118.105ZM114.932 42.5774C113.022 42.5774 111.424 40.9574 111.424 38.7344C111.424 36.4859 113.022 34.8434 114.932 34.8434C116.816 34.8434 118.296 36.4859 118.296 38.7344C118.296 40.9574 116.816 42.5774 114.932 42.5774ZM151.052 25.9514H144.428V44.7029H147.191V37.5989H151.051C154.114 37.5989 157.128 35.3534 157.128 31.7759C157.128 28.1984 154.116 25.9514 151.052 25.9514ZM151.123 34.9889H147.191V28.5614H151.123C153.19 28.5614 154.363 30.2939 154.363 31.7759C154.363 33.2279 153.19 34.9889 151.123 34.9889ZM168.208 32.2964C166.206 32.2964 164.133 33.1889 163.276 35.1674L165.729 36.2039C166.253 35.1674 167.231 34.8284 168.255 34.8284C169.685 34.8284 171.138 35.6969 171.162 37.2404V37.4339C170.661 37.1444 169.588 36.7109 168.279 36.7109C165.634 36.7109 162.941 38.1824 162.941 40.9319C162.941 43.4414 165.11 45.0569 167.539 45.0569C169.397 45.0569 170.422 44.2124 171.065 43.2224H171.16V44.6699H173.83V37.4804C173.831 34.1534 171.375 32.2964 168.208 32.2964ZM167.873 42.5729C166.969 42.5729 165.705 42.1139 165.705 40.9799C165.705 39.5324 167.279 38.9774 168.637 38.9774C169.851 38.9774 170.424 39.2429 171.162 39.6044C170.947 41.3429 169.47 42.5729 167.873 42.5729ZM183.551 32.7059L180.382 40.8359H180.288L176.999 32.7059H174.021L178.953 44.0684L176.141 50.3894H179.024L186.625 32.7059H183.551ZM158.653 44.7029H161.416V25.9514H158.653V44.7029Z" fill="black" fill-opacity="0.87"/>
<path d="M70.4749 15.0669C70.4749 16.3239 70.1075 17.3244 69.3712 18.0714C68.5357 18.9594 67.4453 19.4034 66.1061 19.4034C64.8231 19.4034 63.7312 18.9534 62.8349 18.0534C61.9372 17.1519 61.4883 16.0359 61.4883 14.7039C61.4883 13.3704 61.9372 12.2544 62.8349 11.3544C63.7312 10.4529 64.8231 10.0029 66.1061 10.0029C66.7431 10.0029 67.352 10.1289 67.9298 10.3794C68.509 10.6314 68.9727 10.9659 69.3194 11.3844L68.5387 12.1764C67.9505 11.4639 67.1401 11.1084 66.1046 11.1084C65.1683 11.1084 64.3594 11.4414 63.6764 12.1074C62.9935 12.7734 62.6527 13.6389 62.6527 14.7024C62.6527 15.7659 62.9935 16.6314 63.6764 17.2974C64.3594 17.9634 65.1683 18.2964 66.1046 18.2964C67.0972 18.2964 67.9253 17.9619 68.5875 17.2914C69.0172 16.8549 69.2661 16.2474 69.3327 15.4689H66.1046V14.3874H70.4112C70.4557 14.6229 70.4749 14.8494 70.4749 15.0669Z" fill="black" fill-opacity="0.87"/>
<path d="M77.3047 11.308H73.2573V14.161H76.9077V15.2425H73.2573V18.0955H77.3047V19.2025H72.1151V10.2025H77.3047V11.308Z" fill="black" fill-opacity="0.87"/>
<path d="M82.1208 19.2025H80.9786V11.308H78.4957V10.2025H84.6038V11.308H82.1208V19.2025Z" fill="black" fill-opacity="0.87"/>
<path d="M89.023 19.2025V10.2025H90.1652V19.2025H89.023Z" fill="black" fill-opacity="0.87"/>
<path d="M95.2307 19.2025H94.0884V11.308H91.6055V10.2025H97.7136V11.308H95.2307V19.2025Z" fill="black" fill-opacity="0.87"/>
<path d="M109.276 18.04C108.402 18.949 107.316 19.4035 106.017 19.4035C104.718 19.4035 103.632 18.949 102.759 18.04C101.885 17.131 101.45 16.018 101.45 14.7025C101.45 13.387 101.885 12.274 102.759 11.365C103.632 10.456 104.718 10 106.017 10C107.309 10 108.393 10.4575 109.27 11.371C110.147 12.2845 110.586 13.3945 110.586 14.7025C110.586 16.018 110.149 17.131 109.276 18.04ZM103.602 17.2855C104.26 17.9605 105.064 18.2965 106.017 18.2965C106.97 18.2965 107.776 17.959 108.432 17.2855C109.09 16.6105 109.42 15.7495 109.42 14.7025C109.42 13.6555 109.09 12.7945 108.432 12.1195C107.776 11.4445 106.97 11.1085 106.017 11.1085C105.064 11.1085 104.26 11.446 103.602 12.1195C102.946 12.7945 102.616 13.6555 102.616 14.7025C102.616 15.7495 102.946 16.6105 103.602 17.2855Z" fill="black" fill-opacity="0.87"/>
<path d="M112.189 19.2025V10.2025H113.579L117.899 17.203H117.947L117.899 15.469V10.2025H119.041V19.2025H117.848L113.328 11.8615H113.279L113.328 13.5955V19.2025H112.189Z" fill="black" fill-opacity="0.87"/>
<path d="M70.4749 15.0669C70.4749 16.3239 70.1075 17.3244 69.3712 18.0714C68.5357 18.9594 67.4453 19.4034 66.1061 19.4034C64.8231 19.4034 63.7312 18.9534 62.8349 18.0534C61.9372 17.1519 61.4883 16.0359 61.4883 14.7039C61.4883 13.3704 61.9372 12.2544 62.8349 11.3544C63.7312 10.4529 64.8231 10.0029 66.1061 10.0029C66.7431 10.0029 67.352 10.1289 67.9298 10.3794C68.509 10.6314 68.9727 10.9659 69.3194 11.3844L68.5387 12.1764C67.9505 11.4639 67.1401 11.1084 66.1046 11.1084C65.1683 11.1084 64.3594 11.4414 63.6764 12.1074C62.9935 12.7734 62.6527 13.6389 62.6527 14.7024C62.6527 15.7659 62.9935 16.6314 63.6764 17.2974C64.3594 17.9634 65.1683 18.2964 66.1046 18.2964C67.0972 18.2964 67.9253 17.9619 68.5875 17.2914C69.0172 16.8549 69.2661 16.2474 69.3327 15.4689H66.1046V14.3874H70.4112C70.4557 14.6229 70.4749 14.8494 70.4749 15.0669Z" stroke="white" stroke-width="0.293333" stroke-miterlimit="10"/>
<path d="M77.3047 11.308H73.2573V14.161H76.9077V15.2425H73.2573V18.0955H77.3047V19.2025H72.1151V10.2025H77.3047V11.308Z" stroke="white" stroke-width="0.293333" stroke-miterlimit="10"/>
<path d="M82.1208 19.2025H80.9786V11.308H78.4957V10.2025H84.6038V11.308H82.1208V19.2025Z" stroke="white" stroke-width="0.293333" stroke-miterlimit="10"/>
<path d="M89.023 19.2025V10.2025H90.1652V19.2025H89.023Z" stroke="white" stroke-width="0.293333" stroke-miterlimit="10"/>
<path d="M95.2307 19.2025H94.0884V11.308H91.6055V10.2025H97.7136V11.308H95.2307V19.2025Z" stroke="white" stroke-width="0.293333" stroke-miterlimit="10"/>
<path d="M109.276 18.04C108.402 18.949 107.316 19.4035 106.017 19.4035C104.718 19.4035 103.632 18.949 102.759 18.04C101.885 17.131 101.45 16.018 101.45 14.7025C101.45 13.387 101.885 12.274 102.759 11.365C103.632 10.456 104.718 10 106.017 10C107.309 10 108.393 10.4575 109.27 11.371C110.147 12.2845 110.586 13.3945 110.586 14.7025C110.586 16.018 110.149 17.131 109.276 18.04ZM103.602 17.2855C104.26 17.9605 105.064 18.2965 106.017 18.2965C106.97 18.2965 107.776 17.959 108.432 17.2855C109.09 16.6105 109.42 15.7495 109.42 14.7025C109.42 13.6555 109.09 12.7945 108.432 12.1195C107.776 11.4445 106.97 11.1085 106.017 11.1085C105.064 11.1085 104.26 11.446 103.602 12.1195C102.946 12.7945 102.616 13.6555 102.616 14.7025C102.616 15.7495 102.946 16.6105 103.602 17.2855Z" stroke="white" stroke-width="0.293333" stroke-miterlimit="10"/>
<path d="M112.189 19.2025V10.2025H113.579L117.899 17.203H117.947L117.899 15.469V10.2025H119.041V19.2025H117.848L113.328 11.8615H113.279L113.328 13.5955V19.2025H112.189Z" stroke="white" stroke-width="0.293333" stroke-miterlimit="10"/>
<g filter="url(#filter0_ii_862_101813)">
<path d="M15.6859 11.0096C15.2548 11.4716 15 12.1886 15 13.1171V46.2911C15 47.2211 15.2548 47.9366 15.6859 48.3986L15.7956 48.5066L34.1496 29.9231V29.7041V29.4851L15.7956 10.9001L15.6859 11.0096Z" fill="url(#paint0_linear_862_101813)"/>
<path d="M40.2655 36.1195L34.1484 29.923V29.704V29.485L40.267 23.29L40.4047 23.3695L47.6536 27.5395C49.7232 28.7305 49.7232 30.679 47.6536 31.8715L40.4047 36.0415L40.2655 36.1195Z" fill="url(#paint1_linear_862_101813)"/>
<g filter="url(#filter1_i_862_101813)">
<path d="M40.4075 36.0401L34.1497 29.7041L15.6875 48.3986C16.369 49.1306 17.4964 49.2206 18.766 48.4916L40.4075 36.0401Z" fill="url(#paint2_linear_862_101813)"/>
</g>
<path d="M40.4075 23.3682L18.766 10.9182C17.4964 10.1877 16.369 10.2792 15.6875 11.0112L34.1512 29.7057L40.4075 23.3682Z" fill="url(#paint3_linear_862_101813)"/>
</g>
<rect x="1.33294" y="0.733333" width="198.533" height="58.5333" rx="6.6" stroke="#A6A6A6" stroke-width="1.46667"/>
<defs>
<filter id="filter0_ii_862_101813" x="15" y="10.4141" width="34.2058" height="38.5811" filterUnits="userSpaceOnUse" color-interpolation-filters="sRGB">
<feFlood flood-opacity="0" result="BackgroundImageFix"/>
<feBlend mode="normal" in="SourceGraphic" in2="BackgroundImageFix" result="shape"/>
<feColorMatrix in="SourceAlpha" type="matrix" values="0 0 0 0 0 0 0 0 0 0 0 0 0 0 0 0 0 0 127 0" result="hardAlpha"/>
<feOffset dy="-0.22"/>
<feComposite in2="hardAlpha" operator="arithmetic" k2="-1" k3="1"/>
<feColorMatrix type="matrix" values="0 0 0 0 0 0 0 0 0 0 0 0 0 0 0 0 0 0 0.12 0"/>
<feBlend mode="normal" in2="shape" result="effect1_innerShadow_862_101813"/>
<feColorMatrix in="SourceAlpha" type="matrix" values="0 0 0 0 0 0 0 0 0 0 0 0 0 0 0 0 0 0 127 0" result="hardAlpha"/>
<feOffset dy="0.22"/>
<feComposite in2="hardAlpha" operator="arithmetic" k2="-1" k3="1"/>
<feColorMatrix type="matrix" values="0 0 0 0 1 0 0 0 0 1 0 0 0 0 1 0 0 0 0.25 0"/>
<feBlend mode="normal" in2="effect1_innerShadow_862_101813" result="effect2_innerShadow_862_101813"/>
</filter>
<filter id="filter1_i_862_101813" x="15.6875" y="29.7041" width="24.72" height="19.291" filterUnits="userSpaceOnUse" color-interpolation-filters="sRGB">
<feFlood flood-opacity="0" result="BackgroundImageFix"/>
<feBlend mode="normal" in="SourceGraphic" in2="BackgroundImageFix" result="shape"/>
<feColorMatrix in="SourceAlpha" type="matrix" values="0 0 0 0 0 0 0 0 0 0 0 0 0 0 0 0 0 0 127 0" result="hardAlpha"/>
<feOffset dy="-0.22"/>
<feComposite in2="hardAlpha" operator="arithmetic" k2="-1" k3="1"/>
<feColorMatrix type="matrix" values="0 0 0 0 0 0 0 0 0 0 0 0 0 0 0 0 0 0 0.08 0"/>
<feBlend mode="normal" in2="shape" result="effect1_innerShadow_862_101813"/>
</filter>
<linearGradient id="paint0_linear_862_101813" x1="32.5227" y1="12.7661" x2="7.35161" y2="37.6265" gradientUnits="userSpaceOnUse">
<stop stop-color="#00A0FF"/>
<stop offset="0.0066" stop-color="#00A1FF"/>
<stop offset="0.2601" stop-color="#00BEFF"/>
<stop offset="0.5122" stop-color="#00D2FF"/>
<stop offset="0.7604" stop-color="#00DFFF"/>
<stop offset="1" stop-color="#00E3FF"/>
</linearGradient>
<linearGradient id="paint1_linear_862_101813" x1="50.3477" y1="29.704" x2="14.5019" y2="29.704" gradientUnits="userSpaceOnUse">
<stop stop-color="#FFE000"/>
<stop offset="0.4087" stop-color="#FFBD00"/>
<stop offset="0.7754" stop-color="#FFA500"/>
<stop offset="1" stop-color="#FF9C00"/>
</linearGradient>
<linearGradient id="paint2_linear_862_101813" x1="37.0091" y1="33.145" x2="2.87402" y2="66.8586" gradientUnits="userSpaceOnUse">
<stop stop-color="#FF3A44"/>
<stop offset="1" stop-color="#C31162"/>
</linearGradient>
<linearGradient id="paint3_linear_862_101813" x1="11.0377" y1="-0.0321237" x2="26.28" y2="15.022" gradientUnits="userSpaceOnUse">
<stop stop-color="#32A071"/>
<stop offset="0.0685" stop-color="#2DA771"/>
<stop offset="0.4762" stop-color="#15CF74"/>
<stop offset="0.8009" stop-color="#06E775"/>
<stop offset="1" stop-color="#00F076"/>
</linearGradient>
</defs>
</svg>
